<mxfile host="app.diagrams.net" modified="2023-03-31T01:02:42.065Z" agent="Mozilla/5.0 (Windows NT 10.0; Win64; x64) AppleWebKit/537.36 (KHTML, like Gecko) Chrome/104.0.5112.81 Safari/537.36 Edg/104.0.1293.54" etag="R_VfXUgHEMw-oz-kBU26" version="21.1.2" type="github">
  <diagram id="C5RBs43oDa-KdzZeNtuy" name="Page-1">
    <mxGraphModel dx="1673" dy="945" grid="1" gridSize="10" guides="1" tooltips="1" connect="1" arrows="1" fold="1" page="1" pageScale="1" pageWidth="827" pageHeight="1169" math="0" shadow="0">
      <root>
        <mxCell id="WIyWlLk6GJQsqaUBKTNV-0" />
        <mxCell id="WIyWlLk6GJQsqaUBKTNV-1" parent="WIyWlLk6GJQsqaUBKTNV-0" />
        <mxCell id="_4j7pE1PJ5TqgcQWV1-j-0" style="edgeStyle=none;orthogonalLoop=1;jettySize=auto;html=1;entryX=0;entryY=0.5;entryDx=0;entryDy=0;strokeColor=#788AA3;fontSize=12;fontColor=#46495D;startSize=8;endSize=8;fillColor=#B2C9AB;rounded=1;endArrow=blockThin;endFill=1;" edge="1" parent="WIyWlLk6GJQsqaUBKTNV-1" source="WIyWlLk6GJQsqaUBKTNV-3" target="WIyWlLk6GJQsqaUBKTNV-7">
          <mxGeometry relative="1" as="geometry">
            <Array as="points">
              <mxPoint x="83" y="550" />
            </Array>
          </mxGeometry>
        </mxCell>
        <mxCell id="_4j7pE1PJ5TqgcQWV1-j-2" value="" style="edgeStyle=none;curved=1;orthogonalLoop=1;jettySize=auto;html=1;strokeColor=#788AA3;fontSize=12;fontColor=default;startSize=8;endSize=8;fillColor=#B2C9AB;dashed=1;dashPattern=8 8;endArrow=blockThin;endFill=1;" edge="1" parent="WIyWlLk6GJQsqaUBKTNV-1" source="WIyWlLk6GJQsqaUBKTNV-3" target="_4j7pE1PJ5TqgcQWV1-j-1">
          <mxGeometry relative="1" as="geometry" />
        </mxCell>
        <mxCell id="WIyWlLk6GJQsqaUBKTNV-3" value="GGLO Staff Question" style="rounded=0;whiteSpace=wrap;html=1;fontSize=12;glass=0;strokeWidth=1;shadow=0;labelBackgroundColor=none;fillColor=#B2C9AB;strokeColor=#788AA3;fontColor=#46495D;" parent="WIyWlLk6GJQsqaUBKTNV-1" vertex="1">
          <mxGeometry x="23" y="440" width="120" height="40" as="geometry" />
        </mxCell>
        <mxCell id="WIyWlLk6GJQsqaUBKTNV-7" value="Project BIM Lead" style="rounded=1;whiteSpace=wrap;html=1;fontSize=12;glass=0;strokeWidth=1;shadow=0;labelBackgroundColor=none;fillColor=#dae8fc;strokeColor=#0080F0;verticalAlign=bottom;dashed=0;arcSize=16;" parent="WIyWlLk6GJQsqaUBKTNV-1" vertex="1">
          <mxGeometry x="133" y="520" width="70" height="60" as="geometry" />
        </mxCell>
        <mxCell id="_4j7pE1PJ5TqgcQWV1-j-38" value="" style="edgeStyle=none;curved=1;orthogonalLoop=1;jettySize=auto;html=1;strokeColor=#788AA3;fontSize=12;fontColor=#46495D;startSize=8;endSize=8;fillColor=#B2C9AB;endArrow=blockThin;endFill=1;" edge="1" parent="WIyWlLk6GJQsqaUBKTNV-1" source="_4j7pE1PJ5TqgcQWV1-j-1" target="_4j7pE1PJ5TqgcQWV1-j-37">
          <mxGeometry relative="1" as="geometry" />
        </mxCell>
        <mxCell id="_4j7pE1PJ5TqgcQWV1-j-1" value="What is the Workflow to accomplish this task?" style="whiteSpace=wrap;html=1;fillColor=#B2C9AB;strokeColor=#788AA3;fontColor=#46495D;rounded=0;glass=0;strokeWidth=1;shadow=0;labelBackgroundColor=none;fontSize=12;" vertex="1" parent="WIyWlLk6GJQsqaUBKTNV-1">
          <mxGeometry x="333" y="430" width="120" height="60" as="geometry" />
        </mxCell>
        <mxCell id="_4j7pE1PJ5TqgcQWV1-j-4" value="" style="edgeStyle=none;orthogonalLoop=1;jettySize=auto;html=1;strokeColor=#788AA3;fontSize=12;fontColor=default;startSize=8;endSize=8;fillColor=#B2C9AB;dashed=1;dashPattern=8 8;endArrow=blockThin;endFill=1;rounded=1;" edge="1" parent="WIyWlLk6GJQsqaUBKTNV-1">
          <mxGeometry relative="1" as="geometry">
            <mxPoint x="160" y="460" as="sourcePoint" />
            <mxPoint x="333" y="460" as="targetPoint" />
          </mxGeometry>
        </mxCell>
        <mxCell id="_4j7pE1PJ5TqgcQWV1-j-5" style="edgeStyle=none;orthogonalLoop=1;jettySize=auto;html=1;strokeColor=#788AA3;fontSize=12;fontColor=#46495D;startSize=8;endSize=8;fillColor=#B2C9AB;rounded=1;endArrow=blockThin;endFill=1;" edge="1" parent="WIyWlLk6GJQsqaUBKTNV-1" source="WIyWlLk6GJQsqaUBKTNV-7">
          <mxGeometry relative="1" as="geometry">
            <mxPoint x="253" y="460" as="targetPoint" />
            <mxPoint x="223" y="570" as="sourcePoint" />
            <Array as="points">
              <mxPoint x="253" y="550" />
            </Array>
          </mxGeometry>
        </mxCell>
        <mxCell id="_4j7pE1PJ5TqgcQWV1-j-40" value="" style="edgeStyle=none;curved=1;orthogonalLoop=1;jettySize=auto;html=1;strokeColor=#788AA3;fontSize=12;fontColor=#46495D;startSize=8;endSize=8;fillColor=#B2C9AB;endArrow=blockThin;endFill=1;" edge="1" parent="WIyWlLk6GJQsqaUBKTNV-1" source="_4j7pE1PJ5TqgcQWV1-j-6" target="_4j7pE1PJ5TqgcQWV1-j-39">
          <mxGeometry relative="1" as="geometry" />
        </mxCell>
        <mxCell id="_4j7pE1PJ5TqgcQWV1-j-6" value="I cannot find or need a new/modified Revit family" style="whiteSpace=wrap;html=1;fillColor=#B2C9AB;strokeColor=#788AA3;fontColor=#46495D;rounded=0;glass=0;strokeWidth=1;shadow=0;labelBackgroundColor=none;fontSize=12;" vertex="1" parent="WIyWlLk6GJQsqaUBKTNV-1">
          <mxGeometry x="333" y="339" width="120" height="60" as="geometry" />
        </mxCell>
        <mxCell id="_4j7pE1PJ5TqgcQWV1-j-45" style="edgeStyle=none;orthogonalLoop=1;jettySize=auto;html=1;entryX=0;entryY=0.5;entryDx=0;entryDy=0;strokeColor=#788AA3;fontSize=12;fontColor=#46495D;startSize=8;endSize=8;fillColor=#B2C9AB;rounded=1;endArrow=blockThin;endFill=1;" edge="1" parent="WIyWlLk6GJQsqaUBKTNV-1" source="_4j7pE1PJ5TqgcQWV1-j-7">
          <mxGeometry relative="1" as="geometry">
            <mxPoint x="523" y="244" as="targetPoint" />
            <Array as="points">
              <mxPoint x="483" y="284" />
              <mxPoint x="483" y="244" />
            </Array>
          </mxGeometry>
        </mxCell>
        <mxCell id="_4j7pE1PJ5TqgcQWV1-j-7" value="My file is corrupt" style="whiteSpace=wrap;html=1;fillColor=#f8cecc;strokeColor=#b85450;rounded=0;glass=0;strokeWidth=1;shadow=0;labelBackgroundColor=none;fontSize=12;" vertex="1" parent="WIyWlLk6GJQsqaUBKTNV-1">
          <mxGeometry x="333" y="254" width="120" height="60" as="geometry" />
        </mxCell>
        <mxCell id="_4j7pE1PJ5TqgcQWV1-j-44" value="" style="edgeStyle=none;orthogonalLoop=1;jettySize=auto;html=1;strokeColor=#788AA3;fontSize=12;fontColor=#46495D;startSize=8;endSize=8;fillColor=#B2C9AB;rounded=1;endArrow=blockThin;endFill=1;" edge="1" parent="WIyWlLk6GJQsqaUBKTNV-1" source="_4j7pE1PJ5TqgcQWV1-j-8">
          <mxGeometry relative="1" as="geometry">
            <mxPoint x="523" y="244" as="targetPoint" />
            <Array as="points">
              <mxPoint x="483" y="204" />
              <mxPoint x="483" y="244" />
            </Array>
          </mxGeometry>
        </mxCell>
        <mxCell id="_4j7pE1PJ5TqgcQWV1-j-8" value="I need software,&lt;br style=&quot;font-size: 12px;&quot;&gt;or software doesn&#39;t work" style="whiteSpace=wrap;html=1;fillColor=#f8cecc;strokeColor=#b85450;rounded=0;glass=0;strokeWidth=1;shadow=0;labelBackgroundColor=none;fontSize=12;" vertex="1" parent="WIyWlLk6GJQsqaUBKTNV-1">
          <mxGeometry x="333" y="174" width="120" height="60" as="geometry" />
        </mxCell>
        <mxCell id="_4j7pE1PJ5TqgcQWV1-j-36" value="" style="edgeStyle=none;curved=1;orthogonalLoop=1;jettySize=auto;html=1;strokeColor=#788AA3;fontSize=12;fontColor=#46495D;startSize=8;endSize=8;fillColor=#B2C9AB;endArrow=blockThin;endFill=1;" edge="1" parent="WIyWlLk6GJQsqaUBKTNV-1" source="_4j7pE1PJ5TqgcQWV1-j-9" target="_4j7pE1PJ5TqgcQWV1-j-35">
          <mxGeometry relative="1" as="geometry" />
        </mxCell>
        <mxCell id="_4j7pE1PJ5TqgcQWV1-j-9" value="How do I use the software to accomplish this task?" style="whiteSpace=wrap;html=1;fillColor=#B2C9AB;strokeColor=#788AA3;fontColor=#46495D;rounded=0;glass=0;strokeWidth=1;shadow=0;labelBackgroundColor=none;fontSize=12;" vertex="1" parent="WIyWlLk6GJQsqaUBKTNV-1">
          <mxGeometry x="333" y="520" width="120" height="60" as="geometry" />
        </mxCell>
        <mxCell id="_4j7pE1PJ5TqgcQWV1-j-30" value="" style="edgeStyle=none;curved=1;orthogonalLoop=1;jettySize=auto;html=1;strokeColor=#788AA3;fontSize=12;fontColor=#46495D;startSize=8;endSize=8;fillColor=#B2C9AB;endArrow=blockThin;endFill=1;" edge="1" parent="WIyWlLk6GJQsqaUBKTNV-1" source="_4j7pE1PJ5TqgcQWV1-j-10" target="_4j7pE1PJ5TqgcQWV1-j-29">
          <mxGeometry relative="1" as="geometry" />
        </mxCell>
        <mxCell id="_4j7pE1PJ5TqgcQWV1-j-10" value="What are the graphic standards of the view I&#39;m working in?" style="whiteSpace=wrap;html=1;fillColor=#B2C9AB;strokeColor=#788AA3;fontColor=#46495D;rounded=0;glass=0;strokeWidth=1;shadow=0;labelBackgroundColor=none;fontSize=12;" vertex="1" parent="WIyWlLk6GJQsqaUBKTNV-1">
          <mxGeometry x="333" y="606" width="120" height="60" as="geometry" />
        </mxCell>
        <mxCell id="_4j7pE1PJ5TqgcQWV1-j-22" value="" style="edgeStyle=none;orthogonalLoop=1;jettySize=auto;html=1;strokeColor=#788AA3;fontSize=12;fontColor=default;startSize=8;endSize=8;fillColor=#B2C9AB;dashed=1;dashPattern=8 8;endArrow=blockThin;endFill=1;entryX=0;entryY=0.5;entryDx=0;entryDy=0;rounded=1;exitX=1;exitY=0.5;exitDx=0;exitDy=0;" edge="1" parent="WIyWlLk6GJQsqaUBKTNV-1" source="WIyWlLk6GJQsqaUBKTNV-3" target="_4j7pE1PJ5TqgcQWV1-j-6">
          <mxGeometry relative="1" as="geometry">
            <mxPoint x="150" y="480" as="sourcePoint" />
            <mxPoint x="333" y="370" as="targetPoint" />
            <Array as="points">
              <mxPoint x="283" y="460" />
              <mxPoint x="283" y="370" />
            </Array>
          </mxGeometry>
        </mxCell>
        <mxCell id="_4j7pE1PJ5TqgcQWV1-j-24" value="" style="edgeStyle=none;orthogonalLoop=1;jettySize=auto;html=1;strokeColor=#788AA3;fontSize=12;fontColor=default;startSize=8;endSize=8;fillColor=#B2C9AB;dashed=1;dashPattern=8 8;endArrow=blockThin;endFill=1;entryX=0;entryY=0.5;entryDx=0;entryDy=0;rounded=1;exitX=1;exitY=0.5;exitDx=0;exitDy=0;" edge="1" parent="WIyWlLk6GJQsqaUBKTNV-1" source="WIyWlLk6GJQsqaUBKTNV-3" target="_4j7pE1PJ5TqgcQWV1-j-7">
          <mxGeometry relative="1" as="geometry">
            <mxPoint x="160" y="480" as="sourcePoint" />
            <mxPoint x="333" y="370" as="targetPoint" />
            <Array as="points">
              <mxPoint x="283" y="460" />
              <mxPoint x="283" y="284" />
            </Array>
          </mxGeometry>
        </mxCell>
        <mxCell id="_4j7pE1PJ5TqgcQWV1-j-25" value="" style="edgeStyle=none;orthogonalLoop=1;jettySize=auto;html=1;strokeColor=#788AA3;fontSize=12;fontColor=default;startSize=8;endSize=8;fillColor=#B2C9AB;dashed=1;dashPattern=8 8;endArrow=blockThin;endFill=1;entryX=0;entryY=0.5;entryDx=0;entryDy=0;rounded=1;exitX=1;exitY=0.5;exitDx=0;exitDy=0;" edge="1" parent="WIyWlLk6GJQsqaUBKTNV-1" source="WIyWlLk6GJQsqaUBKTNV-3" target="_4j7pE1PJ5TqgcQWV1-j-8">
          <mxGeometry relative="1" as="geometry">
            <mxPoint x="113" y="460" as="sourcePoint" />
            <mxPoint x="333" y="280" as="targetPoint" />
            <Array as="points">
              <mxPoint x="283" y="460" />
              <mxPoint x="283" y="204" />
            </Array>
          </mxGeometry>
        </mxCell>
        <mxCell id="_4j7pE1PJ5TqgcQWV1-j-26" value="" style="edgeStyle=none;orthogonalLoop=1;jettySize=auto;html=1;strokeColor=#788AA3;fontSize=12;fontColor=default;startSize=8;endSize=8;fillColor=#B2C9AB;dashed=1;dashPattern=8 8;endArrow=blockThin;endFill=1;entryX=0;entryY=0.5;entryDx=0;entryDy=0;rounded=1;exitX=1;exitY=0.5;exitDx=0;exitDy=0;" edge="1" parent="WIyWlLk6GJQsqaUBKTNV-1" source="WIyWlLk6GJQsqaUBKTNV-3" target="_4j7pE1PJ5TqgcQWV1-j-9">
          <mxGeometry relative="1" as="geometry">
            <mxPoint x="113" y="460" as="sourcePoint" />
            <mxPoint x="333" y="280" as="targetPoint" />
            <Array as="points">
              <mxPoint x="283" y="460" />
              <mxPoint x="283" y="550" />
            </Array>
          </mxGeometry>
        </mxCell>
        <mxCell id="_4j7pE1PJ5TqgcQWV1-j-27" value="" style="edgeStyle=none;orthogonalLoop=1;jettySize=auto;html=1;strokeColor=#788AA3;fontSize=12;fontColor=default;startSize=8;endSize=8;fillColor=#B2C9AB;dashed=1;dashPattern=8 8;endArrow=blockThin;endFill=1;entryX=0;entryY=0.5;entryDx=0;entryDy=0;rounded=1;exitX=1;exitY=0.5;exitDx=0;exitDy=0;" edge="1" parent="WIyWlLk6GJQsqaUBKTNV-1" source="WIyWlLk6GJQsqaUBKTNV-3" target="_4j7pE1PJ5TqgcQWV1-j-10">
          <mxGeometry relative="1" as="geometry">
            <mxPoint x="160" y="460" as="sourcePoint" />
            <mxPoint x="333" y="550" as="targetPoint" />
            <Array as="points">
              <mxPoint x="283" y="460" />
              <mxPoint x="283" y="636" />
            </Array>
          </mxGeometry>
        </mxCell>
        <mxCell id="_4j7pE1PJ5TqgcQWV1-j-72" style="edgeStyle=none;shape=connector;rounded=1;orthogonalLoop=1;jettySize=auto;html=1;entryX=0;entryY=0.5;entryDx=0;entryDy=0;labelBackgroundColor=default;strokeColor=#788AA3;fontFamily=Helvetica;fontSize=12;fontColor=#46495D;endArrow=blockThin;endFill=1;startSize=8;endSize=8;fillColor=#B2C9AB;" edge="1" parent="WIyWlLk6GJQsqaUBKTNV-1" source="_4j7pE1PJ5TqgcQWV1-j-29" target="_4j7pE1PJ5TqgcQWV1-j-70">
          <mxGeometry relative="1" as="geometry" />
        </mxCell>
        <mxCell id="_4j7pE1PJ5TqgcQWV1-j-29" value="Manual of Practice" style="whiteSpace=wrap;html=1;fillColor=#dae8fc;strokeColor=#0080F0;rounded=1;glass=0;strokeWidth=1;shadow=0;labelBackgroundColor=none;fontSize=12;arcSize=16;dashed=0;" vertex="1" parent="WIyWlLk6GJQsqaUBKTNV-1">
          <mxGeometry x="493" y="606" width="120" height="60" as="geometry" />
        </mxCell>
        <mxCell id="_4j7pE1PJ5TqgcQWV1-j-35" value="LinkedIn Learning" style="whiteSpace=wrap;html=1;fillColor=#dae8fc;strokeColor=#0080F0;rounded=1;glass=0;strokeWidth=1;shadow=0;labelBackgroundColor=none;fontSize=12;arcSize=16;dashed=0;" vertex="1" parent="WIyWlLk6GJQsqaUBKTNV-1">
          <mxGeometry x="493" y="520" width="120" height="60" as="geometry" />
        </mxCell>
        <mxCell id="_4j7pE1PJ5TqgcQWV1-j-67" style="edgeStyle=none;shape=connector;rounded=1;orthogonalLoop=1;jettySize=auto;html=1;entryX=0.5;entryY=1;entryDx=0;entryDy=0;labelBackgroundColor=default;strokeColor=#788AA3;fontFamily=Helvetica;fontSize=12;fontColor=#46495D;endArrow=blockThin;endFill=1;startSize=8;endSize=8;fillColor=#B2C9AB;" edge="1" parent="WIyWlLk6GJQsqaUBKTNV-1" source="_4j7pE1PJ5TqgcQWV1-j-37" target="_4j7pE1PJ5TqgcQWV1-j-58">
          <mxGeometry relative="1" as="geometry">
            <Array as="points">
              <mxPoint x="745" y="460" />
            </Array>
          </mxGeometry>
        </mxCell>
        <mxCell id="_4j7pE1PJ5TqgcQWV1-j-37" value="Digital Workflows" style="whiteSpace=wrap;html=1;fillColor=#dae8fc;strokeColor=#0080F0;rounded=1;glass=0;strokeWidth=1;shadow=0;labelBackgroundColor=none;fontSize=12;arcSize=16;dashed=0;" vertex="1" parent="WIyWlLk6GJQsqaUBKTNV-1">
          <mxGeometry x="493" y="430" width="120" height="60" as="geometry" />
        </mxCell>
        <mxCell id="_4j7pE1PJ5TqgcQWV1-j-39" value="Unifi Library" style="whiteSpace=wrap;html=1;fillColor=#dae8fc;strokeColor=#0080F0;rounded=1;glass=0;strokeWidth=1;shadow=0;labelBackgroundColor=none;fontSize=12;arcSize=16;dashed=0;" vertex="1" parent="WIyWlLk6GJQsqaUBKTNV-1">
          <mxGeometry x="493" y="339" width="120" height="60" as="geometry" />
        </mxCell>
        <mxCell id="_4j7pE1PJ5TqgcQWV1-j-48" value="" style="edgeStyle=none;curved=1;orthogonalLoop=1;jettySize=auto;html=1;strokeColor=#788AA3;fontSize=12;fontColor=#46495D;startSize=8;endSize=8;fillColor=#B2C9AB;endArrow=blockThin;endFill=1;" edge="1" parent="WIyWlLk6GJQsqaUBKTNV-1">
          <mxGeometry relative="1" as="geometry">
            <mxPoint x="640.75" y="243.9999999999999" as="sourcePoint" />
            <mxPoint x="685" y="244" as="targetPoint" />
          </mxGeometry>
        </mxCell>
        <mxCell id="_4j7pE1PJ5TqgcQWV1-j-46" value="&lt;font style=&quot;font-size: 12px;&quot;&gt;IT-Help@gglo.com&lt;/font&gt;" style="shape=parallelogram;html=1;strokeWidth=2;perimeter=parallelogramPerimeter;whiteSpace=wrap;rounded=1;arcSize=12;size=0.23;strokeColor=#d6b656;fontSize=16;fillColor=#fff2cc;verticalAlign=middle;" vertex="1" parent="WIyWlLk6GJQsqaUBKTNV-1">
          <mxGeometry x="513" y="214" width="150" height="60" as="geometry" />
        </mxCell>
        <mxCell id="_4j7pE1PJ5TqgcQWV1-j-61" style="edgeStyle=none;shape=connector;rounded=1;orthogonalLoop=1;jettySize=auto;html=1;entryX=0.5;entryY=0;entryDx=0;entryDy=0;labelBackgroundColor=default;strokeColor=#788AA3;fontFamily=Helvetica;fontSize=12;fontColor=default;endArrow=blockThin;startSize=8;endSize=8;fillColor=#B2C9AB;dashed=1;dashPattern=8 8;endFill=1;" edge="1" parent="WIyWlLk6GJQsqaUBKTNV-1" source="_4j7pE1PJ5TqgcQWV1-j-49" target="_4j7pE1PJ5TqgcQWV1-j-58">
          <mxGeometry relative="1" as="geometry" />
        </mxCell>
        <mxCell id="_4j7pE1PJ5TqgcQWV1-j-49" value="Digital Services" style="whiteSpace=wrap;html=1;fontSize=12;fillColor=#dae8fc;strokeColor=#0080F0;strokeWidth=1;rounded=1;arcSize=16;glass=0;shadow=0;labelBackgroundColor=none;dashed=0;" vertex="1" parent="WIyWlLk6GJQsqaUBKTNV-1">
          <mxGeometry x="685" y="214" width="120" height="60" as="geometry" />
        </mxCell>
        <mxCell id="_4j7pE1PJ5TqgcQWV1-j-66" style="edgeStyle=none;shape=connector;rounded=1;orthogonalLoop=1;jettySize=auto;html=1;labelBackgroundColor=default;strokeColor=#788AA3;fontFamily=Helvetica;fontSize=12;fontColor=#46495D;endArrow=blockThin;endFill=1;startSize=8;endSize=8;fillColor=#B2C9AB;" edge="1" parent="WIyWlLk6GJQsqaUBKTNV-1" source="_4j7pE1PJ5TqgcQWV1-j-50" target="_4j7pE1PJ5TqgcQWV1-j-58">
          <mxGeometry relative="1" as="geometry" />
        </mxCell>
        <mxCell id="_4j7pE1PJ5TqgcQWV1-j-50" value="Unifi Library" style="whiteSpace=wrap;html=1;fillColor=#dae8fc;strokeColor=#0080F0;rounded=1;glass=0;strokeWidth=1;shadow=0;labelBackgroundColor=none;fontSize=12;arcSize=16;dashed=0;" vertex="1" parent="WIyWlLk6GJQsqaUBKTNV-1">
          <mxGeometry x="493" y="339" width="120" height="60" as="geometry" />
        </mxCell>
        <mxCell id="_4j7pE1PJ5TqgcQWV1-j-53" value="" style="html=1;verticalLabelPosition=bottom;align=center;labelBackgroundColor=#ffffff;verticalAlign=top;strokeWidth=1;strokeColor=#0080F0;shadow=0;dashed=0;shape=mxgraph.ios7.icons.mail;rounded=1;glass=0;fontFamily=Helvetica;fontSize=12;fontColor=default;fillColor=#dae8fc;" vertex="1" parent="WIyWlLk6GJQsqaUBKTNV-1">
          <mxGeometry x="553" y="219" width="30" height="15" as="geometry" />
        </mxCell>
        <mxCell id="_4j7pE1PJ5TqgcQWV1-j-55" style="edgeStyle=none;shape=connector;rounded=1;orthogonalLoop=1;jettySize=auto;html=1;entryX=0.5;entryY=0;entryDx=0;entryDy=0;labelBackgroundColor=default;strokeColor=#788AA3;fontFamily=Helvetica;fontSize=12;fontColor=default;endArrow=blockThin;startSize=8;endSize=8;fillColor=#B2C9AB;endFill=1;" edge="1" parent="WIyWlLk6GJQsqaUBKTNV-1" source="_4j7pE1PJ5TqgcQWV1-j-54" target="WIyWlLk6GJQsqaUBKTNV-3">
          <mxGeometry relative="1" as="geometry" />
        </mxCell>
        <mxCell id="_4j7pE1PJ5TqgcQWV1-j-54" value="" style="html=1;verticalLabelPosition=bottom;align=center;labelBackgroundColor=#ffffff;verticalAlign=top;strokeWidth=1;strokeColor=#0080F0;shadow=0;dashed=0;shape=mxgraph.ios7.icons.user;rounded=1;glass=0;fontFamily=Helvetica;fontSize=12;fontColor=default;fillColor=#dae8fc;" vertex="1" parent="WIyWlLk6GJQsqaUBKTNV-1">
          <mxGeometry x="53" y="340" width="60" height="60" as="geometry" />
        </mxCell>
        <mxCell id="_4j7pE1PJ5TqgcQWV1-j-56" value="" style="html=1;verticalLabelPosition=bottom;align=center;labelBackgroundColor=#ffffff;verticalAlign=top;strokeWidth=1;strokeColor=#0080F0;shadow=0;dashed=0;shape=mxgraph.ios7.icons.user;rounded=1;glass=0;fontFamily=Helvetica;fontSize=12;fontColor=default;fillColor=#dae8fc;" vertex="1" parent="WIyWlLk6GJQsqaUBKTNV-1">
          <mxGeometry x="133" y="520" width="20" height="20" as="geometry" />
        </mxCell>
        <mxCell id="_4j7pE1PJ5TqgcQWV1-j-57" value="" style="html=1;verticalLabelPosition=bottom;align=center;labelBackgroundColor=#ffffff;verticalAlign=top;strokeWidth=1;strokeColor=#0080F0;shadow=0;dashed=0;shape=mxgraph.ios7.icons.user;rounded=1;glass=0;fontFamily=Helvetica;fontSize=12;fontColor=default;fillColor=#dae8fc;" vertex="1" parent="WIyWlLk6GJQsqaUBKTNV-1">
          <mxGeometry x="685" y="214" width="20" height="20" as="geometry" />
        </mxCell>
        <mxCell id="_4j7pE1PJ5TqgcQWV1-j-58" value="Digital Consulting" style="whiteSpace=wrap;html=1;fontSize=12;fillColor=#dae8fc;strokeColor=#0080F0;strokeWidth=1;rounded=1;arcSize=16;glass=0;shadow=0;labelBackgroundColor=none;dashed=0;" vertex="1" parent="WIyWlLk6GJQsqaUBKTNV-1">
          <mxGeometry x="685" y="339" width="120" height="60" as="geometry" />
        </mxCell>
        <mxCell id="_4j7pE1PJ5TqgcQWV1-j-59" value="" style="html=1;verticalLabelPosition=bottom;align=center;labelBackgroundColor=#ffffff;verticalAlign=top;strokeWidth=1;strokeColor=#0080F0;shadow=0;dashed=0;shape=mxgraph.ios7.icons.user;rounded=1;glass=0;fontFamily=Helvetica;fontSize=12;fontColor=default;fillColor=#dae8fc;" vertex="1" parent="WIyWlLk6GJQsqaUBKTNV-1">
          <mxGeometry x="685" y="339" width="20" height="20" as="geometry" />
        </mxCell>
        <mxCell id="_4j7pE1PJ5TqgcQWV1-j-69" style="edgeStyle=none;shape=connector;rounded=1;orthogonalLoop=1;jettySize=auto;html=1;entryX=0.5;entryY=1;entryDx=0;entryDy=0;labelBackgroundColor=default;strokeColor=#788AA3;fontFamily=Helvetica;fontSize=12;fontColor=#46495D;endArrow=blockThin;endFill=1;startSize=8;endSize=8;fillColor=#B2C9AB;exitX=0.5;exitY=0.014;exitDx=0;exitDy=0;exitPerimeter=0;" edge="1" parent="WIyWlLk6GJQsqaUBKTNV-1" source="_4j7pE1PJ5TqgcQWV1-j-87" target="_4j7pE1PJ5TqgcQWV1-j-58">
          <mxGeometry relative="1" as="geometry">
            <mxPoint x="608" y="550" as="sourcePoint" />
            <mxPoint x="745" y="400" as="targetPoint" />
            <Array as="points" />
          </mxGeometry>
        </mxCell>
        <mxCell id="_4j7pE1PJ5TqgcQWV1-j-70" value="Design Realization" style="whiteSpace=wrap;html=1;fontSize=12;fillColor=#dae8fc;strokeColor=#0080F0;strokeWidth=1;rounded=1;arcSize=16;glass=0;shadow=0;labelBackgroundColor=none;dashed=0;" vertex="1" parent="WIyWlLk6GJQsqaUBKTNV-1">
          <mxGeometry x="685" y="606" width="120" height="60" as="geometry" />
        </mxCell>
        <mxCell id="_4j7pE1PJ5TqgcQWV1-j-71" value="" style="html=1;verticalLabelPosition=bottom;align=center;labelBackgroundColor=#ffffff;verticalAlign=top;strokeWidth=1;strokeColor=#0080F0;shadow=0;dashed=0;shape=mxgraph.ios7.icons.user;rounded=1;glass=0;fontFamily=Helvetica;fontSize=12;fontColor=default;fillColor=#dae8fc;" vertex="1" parent="WIyWlLk6GJQsqaUBKTNV-1">
          <mxGeometry x="685" y="606" width="20" height="20" as="geometry" />
        </mxCell>
        <mxCell id="_4j7pE1PJ5TqgcQWV1-j-74" value="" style="edgeStyle=none;shape=connector;rounded=1;orthogonalLoop=1;jettySize=auto;html=1;labelBackgroundColor=default;strokeColor=#788AA3;fontFamily=Helvetica;fontSize=12;fontColor=#46495D;endArrow=blockThin;endFill=1;startSize=8;endSize=8;fillColor=#B2C9AB;" edge="1" parent="WIyWlLk6GJQsqaUBKTNV-1" source="_4j7pE1PJ5TqgcQWV1-j-35" target="_4j7pE1PJ5TqgcQWV1-j-73">
          <mxGeometry relative="1" as="geometry">
            <mxPoint x="613" y="550" as="sourcePoint" />
            <mxPoint x="633" y="610" as="targetPoint" />
            <Array as="points">
              <mxPoint x="633" y="550" />
            </Array>
          </mxGeometry>
        </mxCell>
        <mxCell id="_4j7pE1PJ5TqgcQWV1-j-86" value="" style="edgeStyle=none;shape=connector;rounded=1;orthogonalLoop=1;jettySize=auto;html=1;labelBackgroundColor=default;strokeColor=#788AA3;fontFamily=Helvetica;fontSize=12;fontColor=#46495D;endArrow=blockThin;endFill=1;startSize=8;endSize=8;fillColor=#B2C9AB;" edge="1" parent="WIyWlLk6GJQsqaUBKTNV-1" source="_4j7pE1PJ5TqgcQWV1-j-73" target="_4j7pE1PJ5TqgcQWV1-j-85">
          <mxGeometry relative="1" as="geometry" />
        </mxCell>
        <mxCell id="_4j7pE1PJ5TqgcQWV1-j-73" value="" style="rhombus;whiteSpace=wrap;html=1;rounded=1;shadow=0;glass=0;dashed=0;labelBackgroundColor=#ffffff;strokeWidth=1;fontFamily=Helvetica;fontSize=12;" vertex="1" parent="WIyWlLk6GJQsqaUBKTNV-1">
          <mxGeometry x="648" y="525" width="50" height="50" as="geometry" />
        </mxCell>
        <mxCell id="_4j7pE1PJ5TqgcQWV1-j-83" value="Y" style="text;html=1;align=center;verticalAlign=middle;resizable=0;points=[];autosize=1;strokeColor=none;fillColor=none;fontSize=16;fontFamily=Helvetica;fontColor=#46495D;" vertex="1" parent="WIyWlLk6GJQsqaUBKTNV-1">
          <mxGeometry x="648" y="510" width="30" height="30" as="geometry" />
        </mxCell>
        <mxCell id="_4j7pE1PJ5TqgcQWV1-j-84" value="N" style="text;html=1;align=center;verticalAlign=middle;resizable=0;points=[];autosize=1;strokeColor=none;fillColor=none;fontSize=16;fontFamily=Helvetica;fontColor=#46495D;" vertex="1" parent="WIyWlLk6GJQsqaUBKTNV-1">
          <mxGeometry x="680" y="525" width="40" height="30" as="geometry" />
        </mxCell>
        <mxCell id="_4j7pE1PJ5TqgcQWV1-j-85" value="" style="ellipse;whiteSpace=wrap;html=1;rounded=1;shadow=0;glass=0;dashed=0;labelBackgroundColor=#ffffff;strokeWidth=1;strokeColor=default;fontFamily=Helvetica;fontSize=12;fontColor=default;fillColor=default;" vertex="1" parent="WIyWlLk6GJQsqaUBKTNV-1">
          <mxGeometry x="665" y="480" width="15" height="15" as="geometry" />
        </mxCell>
        <mxCell id="_4j7pE1PJ5TqgcQWV1-j-88" value="" style="edgeStyle=none;shape=connector;rounded=1;orthogonalLoop=1;jettySize=auto;html=1;entryX=0.5;entryY=1;entryDx=0;entryDy=0;labelBackgroundColor=default;strokeColor=#788AA3;fontFamily=Helvetica;fontSize=12;fontColor=#46495D;endArrow=blockThin;endFill=1;startSize=8;endSize=8;fillColor=#B2C9AB;exitX=1;exitY=0.5;exitDx=0;exitDy=0;" edge="1" parent="WIyWlLk6GJQsqaUBKTNV-1" source="_4j7pE1PJ5TqgcQWV1-j-73" target="_4j7pE1PJ5TqgcQWV1-j-87">
          <mxGeometry relative="1" as="geometry">
            <mxPoint x="698" y="550" as="sourcePoint" />
            <mxPoint x="745" y="400" as="targetPoint" />
            <Array as="points">
              <mxPoint x="745" y="550" />
            </Array>
          </mxGeometry>
        </mxCell>
        <mxCell id="_4j7pE1PJ5TqgcQWV1-j-87" value="" style="html=1;verticalLabelPosition=bottom;align=right;labelBackgroundColor=#ffffff;verticalAlign=middle;strokeWidth=1;strokeColor=#0080F0;shadow=0;dashed=0;shape=mxgraph.ios7.icons.user;rounded=1;glass=0;fontFamily=Helvetica;fontSize=12;fontColor=default;fillColor=#dae8fc;" vertex="1" parent="WIyWlLk6GJQsqaUBKTNV-1">
          <mxGeometry x="725" y="490" width="40" height="40" as="geometry" />
        </mxCell>
        <mxCell id="_4j7pE1PJ5TqgcQWV1-j-89" value="PM" style="text;html=1;align=center;verticalAlign=middle;resizable=0;points=[];autosize=1;strokeColor=none;fillColor=none;fontSize=16;fontFamily=Helvetica;fontColor=#46495D;" vertex="1" parent="WIyWlLk6GJQsqaUBKTNV-1">
          <mxGeometry x="755" y="495" width="50" height="30" as="geometry" />
        </mxCell>
        <mxCell id="_4j7pE1PJ5TqgcQWV1-j-90" value="" style="html=1;verticalLabelPosition=bottom;align=center;labelBackgroundColor=#ffffff;verticalAlign=top;strokeWidth=1;strokeColor=#0080F0;shadow=0;dashed=0;shape=mxgraph.ios7.icons.globe;rounded=1;glass=0;fontFamily=Helvetica;fontSize=12;fontColor=#46495D;fillColor=#dae8fc;" vertex="1" parent="WIyWlLk6GJQsqaUBKTNV-1">
          <mxGeometry x="493" y="339" width="20" height="20" as="geometry" />
        </mxCell>
        <mxCell id="_4j7pE1PJ5TqgcQWV1-j-91" value="" style="html=1;verticalLabelPosition=bottom;align=center;labelBackgroundColor=#ffffff;verticalAlign=top;strokeWidth=1;strokeColor=#0080F0;shadow=0;dashed=0;shape=mxgraph.ios7.icons.globe;rounded=1;glass=0;fontFamily=Helvetica;fontSize=12;fontColor=#46495D;fillColor=#dae8fc;" vertex="1" parent="WIyWlLk6GJQsqaUBKTNV-1">
          <mxGeometry x="493" y="430" width="20" height="20" as="geometry" />
        </mxCell>
        <mxCell id="_4j7pE1PJ5TqgcQWV1-j-92" value="" style="html=1;verticalLabelPosition=bottom;align=center;labelBackgroundColor=#ffffff;verticalAlign=top;strokeWidth=1;strokeColor=#0080F0;shadow=0;dashed=0;shape=mxgraph.ios7.icons.globe;rounded=1;glass=0;fontFamily=Helvetica;fontSize=12;fontColor=#46495D;fillColor=#dae8fc;" vertex="1" parent="WIyWlLk6GJQsqaUBKTNV-1">
          <mxGeometry x="493" y="520" width="20" height="20" as="geometry" />
        </mxCell>
        <mxCell id="_4j7pE1PJ5TqgcQWV1-j-93" value="" style="html=1;verticalLabelPosition=bottom;align=center;labelBackgroundColor=#ffffff;verticalAlign=top;strokeWidth=1;strokeColor=#0080F0;shadow=0;dashed=0;shape=mxgraph.ios7.icons.globe;rounded=1;glass=0;fontFamily=Helvetica;fontSize=12;fontColor=#46495D;fillColor=#dae8fc;" vertex="1" parent="WIyWlLk6GJQsqaUBKTNV-1">
          <mxGeometry x="493" y="606" width="20" height="20" as="geometry" />
        </mxCell>
        <mxCell id="_4j7pE1PJ5TqgcQWV1-j-94" style="edgeStyle=none;shape=connector;rounded=1;orthogonalLoop=1;jettySize=auto;html=1;entryX=1;entryY=0.5;entryDx=0;entryDy=0;labelBackgroundColor=default;strokeColor=#788AA3;fontFamily=Helvetica;fontSize=12;fontColor=#46495D;endArrow=blockThin;endFill=1;startSize=8;endSize=8;fillColor=#B2C9AB;" edge="1" parent="WIyWlLk6GJQsqaUBKTNV-1" source="WIyWlLk6GJQsqaUBKTNV-3" target="WIyWlLk6GJQsqaUBKTNV-3">
          <mxGeometry relative="1" as="geometry" />
        </mxCell>
        <mxCell id="_4j7pE1PJ5TqgcQWV1-j-95" value="Training&lt;br style=&quot;font-size: 10px;&quot;&gt;Request" style="text;html=1;align=center;verticalAlign=middle;resizable=0;points=[];autosize=1;strokeColor=none;fillColor=none;fontSize=10;fontFamily=Helvetica;fontColor=#46495D;labelBackgroundColor=default;" vertex="1" parent="WIyWlLk6GJQsqaUBKTNV-1">
          <mxGeometry x="715" y="455" width="60" height="40" as="geometry" />
        </mxCell>
      </root>
    </mxGraphModel>
  </diagram>
</mxfile>
